<?xml version="1.0" standalone="no"?>
<!DOCTYPE svg PUBLIC "-//W3C//DTD SVG 20010904//EN"
 "http://www.w3.org/TR/2001/REC-SVG-20010904/DTD/svg10.dtd">
<svg version="1.0" xmlns="http://www.w3.org/2000/svg"
 width="512.000000pt" height="512.000000pt" viewBox="0 0 512.000000 512.000000"
 preserveAspectRatio="xMidYMid meet">

<g transform="translate(0.000000,512.000000) scale(0.100000,-0.100000)"
fill="#000000" stroke="none">
<path d="M2320 4949 c-423 -46 -812 -193 -1150 -433 -533 -379 -883 -948 -987
-1606 -25 -161 -25 -537 1 -700 151 -966 844 -1735 1780 -1975 190 -49 316
-66 531 -72 661 -19 1283 227 1751 692 204 203 335 386 464 650 257 522 315
1094 169 1662 -40 158 -88 284 -174 458 -350 709 -1003 1184 -1800 1310 -120
19 -466 28 -585 14z m441 -319 c1431 -144 2290 -1658 1679 -2957 -47 -101
-146 -273 -157 -273 -2 0 -48 39 -101 87 -54 47 -140 119 -193 158 -496 371
-1142 537 -1754 450 -491 -69 -918 -270 -1297 -609 -53 -47 -99 -86 -101 -86
-3 0 -28 37 -55 83 -447 743 -392 1670 140 2358 427 552 1141 859 1839 789z"/>
<path d="M2415 4310 c-205 -33 -384 -126 -535 -279 -129 -130 -213 -279 -257
-457 -27 -110 -24 -335 5 -444 50 -182 122 -309 247 -436 100 -101 145 -134
261 -192 361 -181 792 -115 1086 167 130 123 220 278 270 460 32 114 31 343 0
461 -51 187 -121 308 -257 445 -135 135 -257 206 -440 255 -92 25 -284 35
-380 20z"/>
</g>
</svg>
