<?xml version="1.0" standalone="no"?>
<!DOCTYPE svg PUBLIC "-//W3C//DTD SVG 20010904//EN"
 "http://www.w3.org/TR/2001/REC-SVG-20010904/DTD/svg10.dtd">
<svg version="1.0" xmlns="http://www.w3.org/2000/svg"
 width="512.000000pt" height="512.000000pt" viewBox="0 0 512.000000 512.000000"
 preserveAspectRatio="xMidYMid meet">

<g transform="translate(0.000000,512.000000) scale(0.100000,-0.100000)"
fill="#000000" stroke="none">
<path d="M1271 4789 c-313 -53 -577 -319 -631 -634 -8 -52 -10 -449 -8 -1560
3 -1406 5 -1493 22 -1550 82 -273 292 -475 566 -548 85 -22 88 -22 890 -22
794 0 805 0 840 21 105 61 109 212 8 274 -32 19 -52 20 -788 20 -453 0 -783 4
-825 10 -180 26 -329 156 -379 331 -15 50 -16 201 -14 1530 l3 1474 37 78 c63
131 165 216 305 252 87 23 2290 22 2378 0 86 -23 149 -61 215 -131 66 -71 103
-142 119 -228 8 -41 11 -400 11 -1134 l0 -1074 21 -38 c43 -76 150 -104 220
-57 19 12 44 42 57 67 l22 45 -3 1115 c-3 1255 3 1163 -82 1335 -78 161 -197
278 -360 356 -165 79 -59 74 -1385 75 -669 1 -1208 -2 -1239 -7z"/>
<path d="M1490 3548 c-59 -30 -93 -93 -87 -157 16 -152 222 -193 297 -59 27
48 24 124 -7 166 -23 32 -97 72 -133 72 -14 0 -46 -10 -70 -22z"/>
<path d="M2125 3560 c-43 -13 -92 -68 -103 -115 -16 -76 13 -141 78 -176 33
-18 71 -19 696 -19 l661 0 34 23 c48 31 82 101 74 152 -8 51 -36 95 -77 120
-32 19 -52 20 -683 22 -359 1 -664 -3 -680 -7z"/>
<path d="M1505 2785 c-48 -17 -80 -52 -96 -104 -40 -136 106 -250 231 -180 54
31 84 88 78 151 -6 61 -31 96 -88 126 -51 25 -70 27 -125 7z"/>
<path d="M2126 2790 c-120 -37 -145 -207 -43 -284 28 -21 35 -21 701 -24 l672
-2 35 22 c48 33 82 102 74 153 -7 49 -39 97 -80 122 -28 17 -68 18 -680 20
-357 1 -663 -2 -679 -7z"/>
<path d="M1513 2019 c-43 -13 -90 -62 -104 -109 -30 -100 46 -200 151 -200 61
0 107 26 137 77 73 124 -45 274 -184 232z"/>
<path d="M2125 2018 c-124 -43 -145 -212 -35 -285 l33 -23 667 0 667 0 34 23
c49 32 83 105 74 158 -9 53 -64 115 -113 129 -51 14 -1286 12 -1327 -2z"/>
<path d="M3805 1551 c-28 -13 -72 -61 -84 -94 -6 -16 -11 -101 -11 -193 l0
-164 -174 0 c-163 0 -175 -1 -207 -23 -111 -75 -106 -216 11 -274 40 -21 58
-23 206 -23 l163 0 3 -179 c3 -196 6 -206 72 -255 39 -29 133 -29 172 0 66 49
69 59 72 255 l3 179 163 0 c148 0 165 2 206 23 59 30 82 65 88 129 4 61 -19
106 -77 145 -32 22 -44 23 -207 23 l-174 0 0 165 c0 183 -6 210 -59 259 -26
25 -41 30 -88 33 -32 1 -67 -1 -78 -6z"/>
</g>
</svg>
