<?xml version="1.0" standalone="no"?>
<!DOCTYPE svg PUBLIC "-//W3C//DTD SVG 20010904//EN"
 "http://www.w3.org/TR/2001/REC-SVG-20010904/DTD/svg10.dtd">
<svg version="1.0" xmlns="http://www.w3.org/2000/svg"
 width="512.000000pt" height="512.000000pt" viewBox="0 0 512.000000 512.000000"
 preserveAspectRatio="xMidYMid meet">

<g transform="translate(0.000000,512.000000) scale(0.100000,-0.100000)"
fill="#000000" stroke="none">
<path d="M3330 4790 c-718 -100 -1252 -656 -1319 -1374 -6 -54 -11 -100 -14
-102 -2 -2 -48 6 -103 18 -134 29 -432 32 -569 5 -206 -41 -429 -136 -596
-252 -108 -75 -299 -266 -374 -374 -119 -170 -211 -392 -252 -606 -25 -129
-24 -396 1 -530 38 -204 121 -412 231 -575 30 -46 55 -84 55 -86 0 -1 -70
-112 -155 -247 -100 -157 -155 -254 -155 -271 0 -33 41 -76 71 -76 13 0 188
37 391 81 l368 81 98 -40 c218 -90 356 -117 602 -116 210 0 309 17 491 80 225
78 389 183 570 363 270 270 411 576 445 964 4 42 10 77 13 77 3 0 53 -10 111
-21 136 -28 399 -31 535 -6 121 22 251 60 353 104 l85 37 371 -82 c204 -46
379 -82 389 -82 28 0 67 45 67 78 0 20 -47 102 -151 268 -84 131 -152 244
-152 249 0 6 26 49 57 98 103 158 175 332 218 531 32 148 32 445 -1 596 -131
609 -584 1062 -1190 1191 -110 23 -384 34 -491 19z m448 -175 c475 -93 866
-433 1025 -891 56 -163 71 -257 71 -444 0 -189 -15 -283 -70 -442 -53 -151
-117 -270 -217 -401 -22 -29 -37 -59 -37 -75 1 -17 45 -97 119 -212 65 -102
118 -186 117 -187 -1 -1 -135 28 -298 64 l-298 65 -102 -45 c-196 -87 -356
-120 -568 -120 -141 0 -203 7 -342 40 l-66 16 -7 61 c-11 97 -59 274 -103 379
-142 339 -424 635 -754 789 l-91 43 6 106 c31 542 388 1017 903 1202 67 24
228 61 304 71 71 9 328 -3 408 -19z m-1920 -1440 c474 -92 866 -433 1025 -891
56 -163 71 -257 71 -444 0 -187 -15 -281 -71 -445 -115 -334 -361 -613 -679
-773 -86 -43 -249 -98 -352 -119 -107 -21 -375 -24 -474 -5 -112 21 -237 60
-346 109 l-103 46 -287 -63 c-158 -35 -294 -65 -302 -68 -11 -5 -10 1 5 23
108 165 225 362 225 380 0 13 -17 45 -37 72 -179 235 -274 490 -289 778 -37
702 478 1319 1181 1414 96 13 333 6 433 -14z"/>
<path d="M2880 3760 l0 -80 640 0 640 0 0 80 0 80 -640 0 -640 0 0 -80z"/>
<path d="M2880 3280 l0 -80 640 0 640 0 0 80 0 80 -640 0 -640 0 0 -80z"/>
<path d="M3200 2800 l0 -80 480 0 480 0 0 80 0 80 -480 0 -480 0 0 -80z"/>
<path d="M1112 2305 c-26 -19 -25 -14 -162 -537 l-106 -408 82 0 83 0 10 38
c5 20 24 92 42 160 l32 123 145 -3 146 -3 40 -155 41 -155 83 -3 c45 -2 82 -1
82 1 0 12 -232 886 -241 908 -15 39 -49 49 -157 49 -72 0 -103 -4 -120 -15z
m183 -292 c21 -82 40 -154 43 -160 3 -10 -20 -13 -97 -13 -68 0 -101 4 -101
11 0 11 32 134 66 257 11 38 19 52 33 52 15 0 24 -26 56 -147z"/>
<path d="M1800 2240 l0 -80 100 0 100 0 0 -320 0 -320 -100 0 -100 0 0 -80 0
-80 280 0 280 0 0 80 0 80 -100 0 -100 0 0 320 0 320 100 0 100 0 0 80 0 80
-280 0 -280 0 0 -80z"/>
</g>
</svg>
