<?xml version="1.0" standalone="no"?>
<!DOCTYPE svg PUBLIC "-//W3C//DTD SVG 20010904//EN"
 "http://www.w3.org/TR/2001/REC-SVG-20010904/DTD/svg10.dtd">
<svg version="1.0" xmlns="http://www.w3.org/2000/svg"
 width="512.000000pt" height="512.000000pt" viewBox="0 0 512.000000 512.000000"
 preserveAspectRatio="xMidYMid meet">

<g transform="translate(0.000000,512.000000) scale(0.100000,-0.100000)"
fill="#000000" stroke="none">
<path d="M1515 4830 c-763 -107 -1123 -467 -1232 -1230 -16 -113 -18 -215 -18
-1040 0 -825 2 -927 18 -1040 111 -776 483 -1137 1272 -1235 114 -14 248 -16
1050 -12 989 4 983 3 1218 58 199 47 380 127 518 231 305 230 461 588 499
1143 13 195 13 1516 0 1710 -32 472 -144 784 -367 1025 -150 162 -381 286
-650 349 -236 55 -226 55 -1238 57 -864 2 -951 1 -1070 -16z m2020 -315 c444
-51 698 -202 845 -500 82 -165 122 -338 140 -605 13 -188 13 -1512 0 -1700
-18 -267 -58 -440 -140 -605 -128 -260 -337 -406 -679 -474 -181 -37 -296 -41
-1078 -41 l-763 0 0 1970 0 1970 773 0 c623 0 797 -3 902 -15z m-1995 -1955
c0 -1777 -1 -1950 -16 -1950 -35 0 -215 41 -290 66 -382 128 -567 387 -636
894 -10 72 -13 314 -13 1000 0 821 2 916 18 1020 85 547 307 795 807 901 47 9
95 18 108 18 l22 1 0 -1950z"/>
<path d="M3155 3258 c-35 -7 -77 -45 -338 -306 -164 -163 -305 -309 -313 -324
-8 -15 -14 -45 -14 -68 0 -23 6 -53 14 -68 8 -15 149 -161 313 -324 253 -252
304 -298 339 -307 67 -18 138 12 174 72 22 36 27 115 9 150 -6 12 -113 124
-237 249 l-227 228 227 227 c125 126 232 241 237 256 48 126 -53 243 -184 215z"/>
</g>
</svg>
