<?xml version="1.0" standalone="no"?>
<!DOCTYPE svg PUBLIC "-//W3C//DTD SVG 20010904//EN"
 "http://www.w3.org/TR/2001/REC-SVG-20010904/DTD/svg10.dtd">
<svg version="1.0" xmlns="http://www.w3.org/2000/svg"
 width="512.000000pt" height="512.000000pt" viewBox="0 0 512.000000 512.000000"
 preserveAspectRatio="xMidYMid meet">

<g transform="translate(0.000000,512.000000) scale(0.100000,-0.100000)"
fill="#000000" stroke="none">
<path d="M1915 4630 c-125 -17 -256 -87 -340 -183 -54 -61 -108 -169 -125
-247 -8 -40 -10 -431 -8 -1465 l3 -1410 29 -60 c38 -76 105 -143 181 -181 l60
-29 1020 -3 c742 -2 1035 0 1075 8 193 41 355 194 417 395 17 56 18 113 18
910 l0 850 -570 5 -570 5 -47 23 c-62 31 -121 89 -155 154 l-28 53 -5 590 -5
590 -445 1 c-245 1 -472 -2 -505 -6z"/>
<path d="M3060 4087 c0 -440 3 -554 14 -580 17 -42 67 -84 115 -97 25 -6 220
-9 547 -8 l508 3 -543 565 c-299 311 -565 587 -592 615 l-49 50 0 -548z"/>
<path d="M1124 3981 c-111 -75 -186 -175 -227 -306 l-22 -70 0 -1325 c0 -1257
1 -1328 18 -1384 61 -198 195 -332 393 -393 55 -17 115 -18 994 -18 l935 0 70
22 c130 42 233 117 304 224 23 34 41 65 41 70 0 5 -468 10 -1047 11 l-1048 3
-77 37 c-102 48 -168 114 -216 216 l-37 77 -3 1438 c-1 805 -6 1437 -11 1437
-5 0 -35 -18 -67 -39z"/>
</g>
</svg>
