<?xml version="1.0" standalone="no"?>
<!DOCTYPE svg PUBLIC "-//W3C//DTD SVG 20010904//EN"
 "http://www.w3.org/TR/2001/REC-SVG-20010904/DTD/svg10.dtd">
<svg version="1.0" xmlns="http://www.w3.org/2000/svg"
 width="512.000000pt" height="512.000000pt" viewBox="0 0 512.000000 512.000000"
 preserveAspectRatio="xMidYMid meet">

<g transform="translate(0.000000,512.000000) scale(0.100000,-0.100000)"
fill="#000000" stroke="none">
<path d="M2275 5063 c-168 -24 -322 -121 -414 -258 -79 -119 -93 -175 -99
-397 l-4 -188 -237 0 c-131 0 -394 -3 -585 -7 -330 -6 -349 -7 -379 -27 -100
-69 -100 -205 0 -267 35 -22 51 -24 196 -27 l157 -4 0 -1661 c0 -1446 2 -1670
15 -1726 49 -205 225 -381 435 -432 81 -20 2319 -20 2400 0 211 52 386 226
435 432 13 56 15 280 15 1726 l0 1661 158 4 c144 3 160 5 195 27 100 62 100
198 0 267 -30 20 -49 21 -379 27 -191 4 -455 7 -586 7 l-238 0 0 158 c0 99 -6
183 -15 227 -42 198 -191 363 -390 431 -79 28 -82 28 -365 30 -157 1 -298 0
-315 -3z m605 -339 c55 -25 103 -72 133 -128 19 -37 22 -59 25 -208 l4 -168
-482 0 -482 0 4 168 c4 185 12 214 80 281 75 74 109 80 418 78 235 -2 258 -4
300 -23z m1010 -2481 c0 -1105 -4 -1660 -10 -1685 -17 -60 -69 -119 -135 -153
l-59 -30 -1105 -3 c-1221 -3 -1166 -5 -1252 61 -25 18 -55 55 -71 86 l-28 53
0 1659 0 1659 1330 0 1330 0 0 -1647z"/>
<path d="M2495 3346 c-41 -18 -83 -69 -90 -109 -3 -18 -4 -526 -3 -1129 3
-1095 3 -1097 24 -1125 73 -98 195 -98 268 0 l21 28 0 1124 c0 1119 0 1124
-21 1151 -11 15 -32 37 -46 47 -33 25 -113 32 -153 13z"/>
<path d="M1840 2908 c-18 -13 -43 -36 -54 -51 -21 -28 -21 -36 -24 -713 -2
-666 -2 -685 17 -723 58 -113 224 -113 282 0 19 38 19 57 17 723 -3 677 -3
685 -24 713 -35 48 -82 73 -134 73 -32 0 -57 -7 -80 -22z"/>
<path d="M3120 2908 c-18 -13 -43 -36 -54 -51 -21 -28 -21 -36 -24 -713 -2
-666 -2 -685 17 -723 58 -113 224 -113 282 0 19 38 19 57 17 723 -3 677 -3
685 -24 713 -35 48 -82 73 -134 73 -32 0 -57 -7 -80 -22z"/>
</g>
</svg>
