<?xml version="1.0" standalone="no"?>
<!DOCTYPE svg PUBLIC "-//W3C//DTD SVG 20010904//EN"
 "http://www.w3.org/TR/2001/REC-SVG-20010904/DTD/svg10.dtd">
<svg version="1.0" xmlns="http://www.w3.org/2000/svg"
 width="512.000000pt" height="512.000000pt" viewBox="0 0 512.000000 512.000000"
 preserveAspectRatio="xMidYMid meet">

<g transform="translate(0.000000,512.000000) scale(0.100000,-0.100000)"
fill="#000000" stroke="none">
<path d="M4520 5111 c-55 -17 -91 -45 -220 -175 l-135 -136 318 -317 317 -318
136 135 c74 74 145 153 157 175 29 54 30 163 3 220 -11 23 -93 114 -195 216
-150 150 -183 179 -225 193 -52 17 -114 20 -156 7z"/>
<path d="M2997 3632 l-947 -947 -115 -345 c-63 -190 -115 -356 -115 -369 0
-48 39 -108 84 -130 23 -12 53 -21 66 -21 13 0 179 52 369 115 l346 115 950
950 950 950 -315 315 c-173 173 -317 315 -320 315 -3 0 -431 -426 -953 -948z"/>
<path d="M445 4290 c-194 -40 -352 -179 -417 -368 l-23 -67 0 -1705 0 -1705
23 -66 c57 -166 185 -294 350 -351 l67 -23 1705 0 1705 0 67 23 c163 57 286
178 350 348 l23 59 3 1400 2 1400 -712 -711 c-653 -651 -718 -713 -778 -741
-117 -56 -733 -254 -808 -260 -124 -10 -256 40 -348 131 -93 94 -144 231 -130
358 7 69 210 695 259 798 28 60 90 125 741 778 l710 712 -1374 -1 c-756 -1
-1393 -5 -1415 -9z"/>
</g>
</svg>
