<?xml version="1.0" standalone="no"?>
<!DOCTYPE svg PUBLIC "-//W3C//DTD SVG 20010904//EN"
 "http://www.w3.org/TR/2001/REC-SVG-20010904/DTD/svg10.dtd">
<svg version="1.0" xmlns="http://www.w3.org/2000/svg"
 width="512.000000pt" height="512.000000pt" viewBox="0 0 512.000000 512.000000"
 preserveAspectRatio="xMidYMid meet">

<g transform="translate(0.000000,512.000000) scale(0.100000,-0.100000)"
fill="#000000" stroke="none">
<path d="M3813 4946 c-95 -22 -186 -72 -276 -152 -45 -39 -769 -760 -1608
-1600 -1193 -1194 -1529 -1537 -1537 -1564 -6 -19 -61 -322 -123 -672 -82
-468 -110 -647 -104 -675 9 -49 69 -109 118 -118 28 -5 209 23 675 104 350 62
653 117 672 123 27 8 197 172 723 697 379 377 703 704 720 726 29 35 32 46 32
105 0 77 -18 109 -81 140 -49 24 -94 26 -137 4 -18 -9 -312 -295 -654 -637
-342 -342 -624 -619 -626 -617 -2 3 -36 100 -74 216 l-71 211 1054 1054 1054
1054 145 -145 145 -145 -234 -235 c-129 -129 -241 -249 -250 -267 -22 -43 -20
-88 4 -137 31 -63 63 -81 140 -81 59 0 70 3 105 32 22 17 304 296 626 620 430
432 595 604 622 648 103 174 113 378 26 561 -30 61 -64 100 -314 352 -154 156
-304 299 -334 319 -118 78 -298 111 -438 79z m237 -334 c32 -15 124 -101 301
-279 234 -235 258 -263 274 -312 20 -62 16 -140 -10 -192 -9 -19 -49 -67 -88
-107 l-72 -72 -402 402 -403 403 68 68 c94 96 140 118 232 114 31 -2 75 -12
100 -25z m108 -1259 l-73 -73 -402 402 -403 403 72 72 73 73 402 -402 403
-403 -72 -72z m-1867 -837 l-1054 -1054 -211 71 c-116 38 -213 72 -216 74 -2
2 502 510 1120 1128 l1125 1125 145 -145 145 -145 -1054 -1054z m-1055 -1609
c80 -240 82 -247 61 -252 -76 -17 -770 -135 -774 -132 -3 4 115 698 132 774 5
21 12 19 252 -61 l247 -82 82 -247z"/>
</g>
</svg>
