<?xml version="1.0" standalone="no"?>
<!DOCTYPE svg PUBLIC "-//W3C//DTD SVG 20010904//EN"
 "http://www.w3.org/TR/2001/REC-SVG-20010904/DTD/svg10.dtd">
<svg version="1.0" xmlns="http://www.w3.org/2000/svg"
 width="512.000000pt" height="512.000000pt" viewBox="0 0 512.000000 512.000000"
 preserveAspectRatio="xMidYMid meet">

<g transform="translate(0.000000,512.000000) scale(0.100000,-0.100000)"
fill="#000000" stroke="none">
<path d="M601 4899 c-137 -24 -278 -132 -339 -260 -35 -74 -57 -189 -49 -264
8 -76 433 -1452 465 -1504 17 -27 43 -53 68 -66 23 -12 238 -71 478 -131 240
-60 436 -111 436 -114 0 -3 -197 -54 -437 -114 -282 -70 -453 -117 -480 -133
-25 -14 -52 -41 -67 -66 -13 -23 -122 -359 -242 -747 l-218 -705 0 -95 c1
-220 118 -389 320 -461 69 -25 203 -29 274 -10 25 7 279 127 565 266 286 139
1105 537 1820 885 715 348 1340 652 1389 678 205 105 320 286 320 502 0 216
-115 397 -320 502 -49 26 -674 330 -1389 678 -715 348 -1534 746 -1820 885
-286 139 -538 258 -560 263 -63 17 -155 22 -214 11z m1950 -1320 c1020 -496
1866 -910 1881 -921 16 -11 33 -36 39 -59 16 -51 -1 -111 -39 -137 -37 -26
-3731 -1822 -3748 -1822 -20 0 -44 29 -44 53 0 12 86 301 191 642 l191 621
776 193 c428 107 798 200 823 207 87 26 149 111 149 204 0 93 -62 178 -149
204 -25 7 -395 100 -823 207 l-776 193 -191 621 c-105 341 -191 630 -191 642
0 24 24 53 44 53 8 0 848 -406 1867 -901z"/>
</g>
</svg>
